<?xml version="1.0" encoding="UTF-8"?>
<svg id="Layer_3" data-name="Layer 3" xmlns="http://www.w3.org/2000/svg" viewBox="0 0 53.51 53.53">
  <defs>
    <style>
      .cls-1 {
        fill: #59767f;
      }

      .cls-2 {
        fill: #1b3844;
      }
    </style>
  </defs>
  <path class="cls-2" d="M7.86,42.75s.06.07.08.09v-.02s-.06-.05-.08-.07Z"/>
  <g>
    <path class="cls-1" d="M2.03,27.69c-.03-.66-.03-1.32,0-1.97-.05.66-.05,1.31,0,1.97Z"/>
    <path class="cls-1" d="M8.7,43.67l-.03-.03s-.04-.02-.05-.03c.03.03.06.07.09.08t-.01-.02Z"/>
    <path class="cls-2" d="M53.49,25.53c-.19-4.08-1.29-7.91-3.09-11.29-.01-.02-.02-.03-.03-.04C45.66,5.37,36.17-.46,25.52.03,17.15.42,9.84,4.64,5.21,10.92,1.71,15.69-.26,21.63.03,28c.68,14.73,13.22,26.18,27.96,25.5,1.72-.08,3.38-.32,4.99-.7,8.83-2.11,15.9-8.58,18.93-16.92,1.17-3.22,1.74-6.71,1.58-10.35ZM36.24,40.15c-3.58,15.65-28.52,8.6-24.51-5.74,1.62-5.79,4.9,4.62,9.69,3.47,4.91-1.17,5.41-6.52,1.62-10.43-4.73-4.88-20.41-2.03-14.34,16.22l-.03-.03-.18-.18c-3.77-4.12-6.18-9.55-6.46-15.56v-.21c-.05-.66-.05-1.31,0-1.97h0C2.48,15.44,9.27,6.6,18.7,3.35c-8.47,6.99-4.45,15.8,3.44,20.01,6.53,3.49,16.44,6.59,14.1,16.79ZM45.82,42.54c.92-2.23,3.29-8.39-1.35-15.03-4.92-7.04-20.52-9.63-23.46-13.44-4.78-6.19,1.37-11.76,6.48-11.45,7.14.43,8.55,6.65,3.22,7.37-3.98.55-1.86,7.09,3.55,5.66,3.71-.98,4.41-4.34,4.51-5.16.21-1.8.18-4.08-2.28-6.48.01,0,.02.01.02.01,8.43,3.63,14.53,11.84,14.98,21.61.29,6.38-1.87,12.34-5.67,16.91Z"/>
  </g>
</svg>