<svg xmlns="http://www.w3.org/2000/svg" width="512" height="512" viewBox="0 0 512 512">
  <defs>
    <linearGradient id="bg" x1="0" y1="0" x2="0" y2="1">
      <stop offset="0" stop-color="#4f8ceb"/>
      <stop offset="1" stop-color="#2c60c6"/>
    </linearGradient>
    <linearGradient id="feather" x1="0" y1="0" x2="1" y2="1">
      <stop offset="0" stop-color="#ffd76b"/>
      <stop offset="1" stop-color="#e8a92e"/>
    </linearGradient>
    <filter id="softShadow" x="-20%" y="-20%" width="140%" height="140%">
      <feDropShadow dx="0" dy="8" stdDeviation="12" flood-color="#000" flood-opacity="0.25"/>
    </filter>
  </defs>
  <rect width="512" height="512" rx="104" fill="url(#bg)"/>
  <g filter="url(#softShadow)">
    <path d="M158 84 h150 l60 60 v268 a18 18 0 0 1 -18 18 h-192 a18 18 0 0 1 -18 -18 v-310 a18 18 0 0 1 18 -18 z" fill="#ffffff"/>
    <path d="M308 84 l60 60 h-46 a14 14 0 0 1 -14 -14 z" fill="#d5e0f2"/>
    <g fill="#c2cfe2">
      <rect x="176" y="176" width="130" height="13" rx="6.5"/>
      <rect x="176" y="208" width="160" height="13" rx="6.5"/>
      <rect x="176" y="272" width="160" height="13" rx="6.5"/>
      <rect x="176" y="304" width="110" height="13" rx="6.5"/>
    </g>
    <rect x="169" y="233" width="150" height="27" rx="9" fill="#ffd54a"/>
    <rect x="176" y="240" width="136" height="13" rx="6.5" fill="#b7952e" opacity="0.55"/>
  </g>
  <g filter="url(#softShadow)" transform="translate(255,352) rotate(38)">
    <path d="M18,-236 C 62,-198 66,-116 26,-56 C 18,-44 6,-38 -3,-42 C -19,-50 -30,-70 -32,-98 C -36,-154 -16,-208 18,-236 Z" fill="url(#feather)"/>
    <path d="M18,-236 C 4,-172 -3,-112 -5,-58 C -6,-32 -5,-16 -1,-2" stroke="#8a6d1c" stroke-width="7" fill="none" stroke-linecap="round"/>
    <path d="M-24,-118 C -8,-124 6,-134 16,-148 C 4,-128 -6,-116 -22,-106 Z" fill="#8a6d1c" opacity="0.18"/>
    <path d="M-1,-2 L -12,24 C -8,33 6,33 10,24 L 3,-2 Z" fill="#1d3f95"/>
    <line x1="-1" y1="10" x2="-1" y2="26" stroke="#8a6d1c" stroke-width="2.4" opacity="0.5"/>
  </g>
</svg>
